HIERARCHY
ROOT ui
{
	 OFFSET 0 0 0
	 CHANNELS 3 XPosition YPosition Z Position
	 EndSite
	 {
	 OFFSET 0 -1 0
	 }
}
ROOT li
{
	 OFFSET 0 0 0
	 CHANNELS 3 XPosition YPosition Z Position
	 EndSite
	 {
	 OFFSET 0 -1 0
	 }
}
ROOT ul
{
	 OFFSET 0 0 0
	 CHANNELS 3 XPosition YPosition Z Position
	 EndSite
	 {
	 OFFSET 0 -1 0
	 }
}
ROOT ll
{
	 OFFSET 0 0 0
	 CHANNELS 3 XPosition YPosition Z Position
	 EndSite
	 {
	 OFFSET 0 -1 0
	 }
}
ROOT tt
{
	 OFFSET 0 0 0
	 CHANNELS 3 XPosition YPosition Z Position
	 EndSite
	 {
	 OFFSET 0 -1 0
	 }
}
ROOT tb
{
	 OFFSET 0 0 0
	 CHANNELS 3 XPosition YPosition Z Position
	 EndSite
	 {
	 OFFSET 0 -1 0
	 }
}
ROOT td
{
	 OFFSET 0 0 0
	 CHANNELS 3 XPosition YPosition Z Position
	 EndSite
	 {
	 OFFSET 0 -1 0
	 }
}
ROOT v
{
	 OFFSET 0 0 0
	 CHANNELS 3 XPosition YPosition Z Position
	 EndSite
	 {
	 OFFSET 0 -1 0
	 }
}
ROOT bn
{
	 OFFSET 0 0 0
	 CHANNELS 3 XPosition YPosition Z Position
	 EndSite
	 {
	 OFFSET 0 -1 0
	 }
}
MOTION
Frames: 19
Frame Time: 0.002
-0.0016303390264511108	-0.003117310047149658	0		0.4974917297363281	-2.482950927734375	0		-0.9792589721679688	-0.11264482879638672	0		-0.5509757080078125	-2.742084228515625	0		2.293480712890625	-1.59699365234375	0		3.921212646484375	-0.9350977172851562	0		4.93515380859375	-0.7406499633789062	0		5.86281201171875	0.23804873657226563	0		-0.10771450042724609	5.87556884765625	0		
-0.0021170148849487306	-0.0028078699111938475	0		0.5229369506835938	-2.48779541015625	0		-0.9906966552734375	-0.10325812530517578	0		-0.60357275390625	-2.753473876953125	0		2.2690419921875	-1.58358642578125	0		3.92081201171875	-0.916851318359375	0		4.919748046875	-0.7243323364257812	0		5.86627880859375	0.2292420654296875	0		-0.12316869354248047	5.86496435546875	0		
-0.011630386352539062	0.006550716876983643	0		0.4923349304199219	-2.48732666015625	0		-0.9972341918945312	-0.09790113830566406	0		-0.5583658447265625	-2.7864150390625	0		2.27059423828125	-1.558324951171875	0		3.90723974609375	-0.915530517578125	0		4.9241015625	-0.7371249389648438	0		5.8617685546875	0.2384821014404297	0		-0.12463685607910156	5.86627978515625	0		
-0.0033114969730377196	-0.002196528911590576	0		0.5026339416503907	-2.493092529296875	0		-1.0687744140625	-0.08118260192871093	0		-0.634109375	-2.798679931640625	0		2.2580087890625	-1.5459876708984375	0		3.9016806640625	-0.9002568969726562	0		4.9185361328125	-0.7238633422851563	0		5.86509130859375	0.22967648315429687	0		-0.124186279296875	5.86557958984375	0		
2.7564000338315963E-5	0.0020756309032440184	0		0.47795556640625	-2.485669189453125	0		-1.0554422607421876	-0.07795211029052734	0		-0.553946533203125	-2.818834228515625	0		2.275445068359375	-1.52082666015625	0		3.928927490234375	-0.9101749877929688	0		4.9178447265625	-0.7236345825195313	0		5.8784501953125	0.2368098602294922	0		-0.1277083740234375	5.879892578125	0		
0.050280529022216795	-0.0019311530590057373	0		0.4942218017578125	-2.481489501953125	0		-1.052098876953125	-0.06567868041992188	0		-0.6047630004882812	-2.8282607421875	0		2.274888671875	-1.48757470703125	0		3.88939697265625	-0.8737234497070312	0		4.92316455078125	-0.7144482421875	0		5.8687353515625	0.23806617736816407	0		-0.11037203979492187	5.87707470703125	0		
-0.005471747875213623	-0.001352931022644043	0		0.49836456298828125	-2.494257568359375	0		-0.986808349609375	-0.05777507019042969	0		-0.5416538696289063	-2.846350830078125	0		2.268259765625	-1.4623023681640626	0		3.894581787109375	-0.8825384521484375	0		4.912421875	-0.7111826171875	0		5.8589912109375	0.239312255859375	0		-0.11204813385009765	5.87834814453125	0		
-0.033247386932373044	-9.529700279235839E-4	0		0.48659524536132814	-2.487954345703125	0		-1.061555419921875	-0.05209661865234375	0		-0.5805633544921875	-2.8638818359375	0		2.245684326171875	-1.4239566650390625	0		3.87286474609375	-0.870216064453125	0		4.90165673828125	-0.7079317016601563	0		5.85812646484375	0.22349375915527345	0		-0.12782154083251954	5.86768115234375	0		
-0.007040593147277832	-8.841080069541931E-4	0		0.49674325561523436	-2.49379931640625	0		-1.0482861328125	-0.04094351196289062	0		-0.5675217895507813	-2.887733154296875	0		2.2240888671875	-1.3866373291015626	0		3.88406884765625	-0.8691005249023438	0		4.90680712890625	-0.7167901000976562	0		5.8613759765625	0.23063502502441408	0		-0.12955009460449218	5.86891064453125	0		
-0.007840583801269532	-6.881750226020813E-4	0		0.49994979858398436	-2.488630615234375	0		-1.08406298828125	-0.03653843688964844	0		-0.5743814697265625	-2.893497802734375	0		2.199465576171875	-1.353324462890625	0		3.87245556640625	-0.8348766479492188	0		4.91517919921875	-0.6856876831054688	0		5.860578125	0.2307791748046875	0		-0.13420677185058594	5.8851298828125	0		
-0.008634870529174804	-5.219449996948242E-4	0		0.516153564453125	-2.485565673828125	0		-1.0408411865234375	-0.033615890502929686	0		-0.510290283203125	-2.909698974609375	0		2.179907470703125	-1.31006689453125	0		3.86162646484375	-0.8396824951171875	0		4.914380859375	-0.6855572509765625	0		5.85978564453125	0.23090097045898436	0		-0.13104812622070314	5.8692744140625	0		
-0.009408138275146484	-3.8822901248931885E-4	0		0.4853655700683594	-2.48526318359375	0		-1.0385458984375	-0.02149323844909668	0		-0.5111959228515625	-2.929561767578125	0		2.20438916015625	-1.264090576171875	0		3.8559970703125	-0.8135442504882813	0		4.9006103515625	-0.6843779907226563	0		5.85001953125	0.23205030822753905	0		-0.11771121978759766	5.88232861328125	0		
0.036815452575683597	-0.007558924198150635	0		0.5375780029296875	-2.492470458984375	0		-1.0452528076171874	-0.016355712890625	0		-0.5210016479492188	-2.9394091796875	0		2.18393505859375	-1.213887939453125	0		3.82727001953125	-0.8113023071289063	0		4.881033203125	-0.6561917724609375	0		5.84928515625	0.23212287902832032	0		-0.09944955444335937	5.87731884765625	0		
-0.037824375152587894	-7.319200038909913E-5	0		0.46489724731445314	-2.49099755859375	0		-1.1109156494140624	-0.01291871166229248	0		-0.516776611328125	-2.954374755859375	0		2.178474365234375	-1.1748040771484376	0		3.821730224609375	-0.7862225341796875	0		4.88842529296875	-0.6431885986328125	0		5.8585068359375	0.21511207580566405	0		-0.13514923095703124	5.87158154296875	0		
0.04853985977172852	-0.004548890113830566	0		0.49630075073242186	-2.488158203125	0		-1.05746484375	-0.0022045929431915284	0		-0.5824119873046875	-2.957978271484375	0		2.164189453125	-1.1177030029296875	0		3.8281181640625	-0.7862421264648437	0		4.88469287109375	-0.664151123046875	0		5.86194140625	0.22310806274414063	0		-0.103636474609375	5.8924208984375	0		
-0.002969844102859497	-0.0012717939615249634	0		0.4868218688964844	-2.48012158203125	0		-1.0359127197265625	0.011652409553527832	0		-0.5180291748046875	-2.97436669921875	0		2.13301904296875	-1.0555391845703126	0		3.802849609375	-0.741110595703125	0		4.88236083984375	-0.6301503295898437	0		5.86141357421875	0.22309928894042969	0		-0.12122224426269532	5.8835029296875	0		
0.04260161590576172	-5.893080234527588E-4	0		0.5103548889160157	-2.4873115234375	0		-1.0363463134765625	0.011595643043518067	0		-0.5404710693359375	-2.9772958984375	0		2.11486962890625	-1.0064844970703124	0		3.765384521484375	-0.7469413452148438	0		4.8689345703125	-0.6291162719726563	0		5.85198486328125	0.22411380004882814	0		-0.138723876953125	5.87454638671875	0		
-0.04374699401855469	-0.0031879599094390867	0		0.4800335693359375	-2.487228759765625	0		-1.0416561279296874	0.01552815055847168	0		-0.5019116516113281	-2.99861279296875	0		2.107907958984375	-0.942527587890625	0		3.7601982421875	-0.7219879150390625	0		4.87363818359375	-0.6232158203125	0		5.84760546875	0.21607127380371094	0		-0.1400769805908203	5.87546044921875	0		
0.042040569305419925	-8.0833899974823E-4	0		0.49279693603515623	-2.49142822265625	0		-1.072838134765625	0.02357125473022461	0		-0.5451386108398437	-3.001497802734375	0		2.0739833984375	-0.8904494018554687	0		3.761077392578125	-0.7040997314453125	0		4.859533203125	-0.6022364501953125	0		5.8374677734375	0.23203477478027343	0		-0.1403398895263672	5.87533154296875	0		
